# xmcd CD database file
#
# Track frame offsets:
#	150
#	4177
#	32177
#	48279
#	69800
#	73511
#	92425
#	115394
#
# Disc length: 1830 seconds
#
# Revision: 2
# Processed by: cddbd v1.5.2PL0 Copyright (c) Steve Scherf et al.
# Submitted via: CDex 1.70beta3
#
DISCID=5e072408
DTITLE=Unlucky Morpheus - Jealousy
DYEAR=2009
DGENRE=Vocal
TTITLE0=Scharlachrotの地平線(Instrumental)
TTITLE1=Jealousy of Silence
TTITLE2=Endless Control
TTITLE3=Le Cirque De Sept Couleurs
TTITLE4=BPM210の上海アリス(Instrumental)
TTITLE5=魔境堕天録サリエル
TTITLE6=Perverseness
TTITLE7=百鬼夜行
EXTD=YEAR: 2009
EXTT0=
EXTT1=
EXTT2=
EXTT3=
EXTT4=
EXTT5=
EXTT6=
EXTT7=
PLAYORDER=
